<svg width="37" height="37" viewBox="0 0 37 37" fill="none" xmlns="http://www.w3.org/2000/svg">
<path d="M25.6667 36.6667V32.5417C23.9556 31.9917 22.5194 31.0139 21.3583 29.6083C20.1972 28.2028 19.525 26.5833 19.3417 24.75H23.0083C23.2528 26.0639 23.8715 27.1562 24.8646 28.0271C25.8576 28.8979 27.0417 29.3333 28.4167 29.3333H33.9167C34.6806 29.3333 35.3299 29.6007 35.8646 30.1354C36.3993 30.6701 36.6667 31.3194 36.6667 32.0833V36.6667H25.6667V36.6667M31.1667 27.5C30.1583 27.5 29.2951 27.141 28.5771 26.4229C27.859 25.7049 27.5 24.8417 27.5 23.8333C27.5 22.825 27.859 21.9618 28.5771 21.2437C29.2951 20.5257 30.1583 20.1667 31.1667 20.1667C32.175 20.1667 33.0382 20.5257 33.7562 21.2437C34.4743 21.9618 34.8333 22.825 34.8333 23.8333C34.8333 24.8417 34.4743 25.7049 33.7562 26.4229C33.0382 27.141 32.175 27.5 31.1667 27.5V27.5M12.8333 22C12.8333 17.4167 14.4375 13.5208 17.6458 10.3125C20.8542 7.10417 24.75 5.5 29.3333 5.5V9.16667C25.7583 9.16667 22.7257 10.4118 20.2354 12.9021C17.7451 15.3924 16.5 18.425 16.5 22H12.8333V22M20.1667 22C20.1667 19.4639 21.0604 17.3021 22.8479 15.5146C24.6354 13.7271 26.7972 12.8333 29.3333 12.8333V16.5C27.8056 16.5 26.5069 17.0347 25.4375 18.1042C24.3681 19.1736 23.8333 20.4722 23.8333 22H20.1667V22M0 16.5V11.9167C0 11.1528 0.267361 10.5035 0.802083 9.96875C1.33681 9.43403 1.98611 9.16667 2.75 9.16667H8.25C9.625 9.16667 10.809 8.73125 11.8021 7.86042C12.7951 6.98958 13.4139 5.89722 13.6583 4.58333H17.325C17.1417 6.41667 16.4694 8.03611 15.3083 9.44167C14.1472 10.8472 12.7111 11.825 11 12.375V16.5H0V16.5M5.5 7.33333C4.49167 7.33333 3.62847 6.97431 2.91042 6.25625C2.19236 5.53819 1.83333 4.675 1.83333 3.66667C1.83333 2.65833 2.19236 1.79514 2.91042 1.07708C3.62847 0.359028 4.49167 0 5.5 0C6.50833 0 7.37153 0.359028 8.08958 1.07708C8.80764 1.79514 9.16667 2.65833 9.16667 3.66667C9.16667 4.675 8.80764 5.53819 8.08958 6.25625C7.37153 6.97431 6.50833 7.33333 5.5 7.33333V7.33333" fill="#3B82F6"/>
</svg>
