<svg width="27" height="27" viewBox="0 0 27 27" fill="none" xmlns="http://www.w3.org/2000/svg">
<path d="M15 27V24H18V27H15V27M12 24V16.5H15V24H12V24M24 19.5V13.5H27V19.5H24V19.5M21 13.5V10.5H24V13.5H21V13.5M3 16.5V13.5H6V16.5H3V16.5M0 13.5V10.5H3V13.5H0V13.5M13.5 3V0H16.5V3H13.5V3M2.25 6.75H6.75V2.25H2.25V6.75V6.75M0 9V0H9V9H0V9M2.25 24.75H6.75V20.25H2.25V24.75V24.75M0 27V18H9V27H0V27M20.25 6.75H24.75V2.25H20.25V6.75V6.75M18 9V0H27V9H18V9M21 27V22.5H18V19.5H24V24H27V27H21V27M15 16.5V13.5H21V16.5H15V16.5M9 16.5V13.5H6V10.5H15V13.5H12V16.5H9V16.5M10.5 9V3H13.5V6H16.5V9H10.5V9M3.375 5.625V3.375H5.625V5.625H3.375V5.625M3.375 23.625V21.375H5.625V23.625H3.375V23.625M21.375 5.625V3.375H23.625V5.625H21.375V5.625" fill="#3B82F6"/>
</svg>
